<svg width="109" height="17" viewBox="0 0 109 17" fill="none" xmlns="http://www.w3.org/2000/svg">
<path d="M14 13H2V7.66667L8 2L14 7.66667V13Z" fill="#E8EAF6"/>
<path d="M13 7L11.3333 5.33333V3H13V7ZM2 13H14V14.6667H2V13Z" fill="#C5CAE9"/>
<path d="M7.99998 1.43311L1.33331 7.6331L1.99998 8.36644L7.99998 2.79977L14 8.36644L14.6666 7.6331L7.99998 1.43311Z" fill="#B71C1C"/>
<path d="M6 9.3335H10V14.6668H6V9.3335Z" fill="#D84315"/>
<path d="M7 5.6665H9V7.6665H7V5.6665Z" fill="#01579B"/>
<path d="M9.16667 11.8335C9.06667 11.8335 9 11.9002 9 12.0002V12.6668C9 12.7668 9.06667 12.8335 9.16667 12.8335C9.26667 12.8335 9.33333 12.7668 9.33333 12.6668V12.0002C9.33333 11.9002 9.26667 11.8335 9.16667 11.8335Z" fill="#FF8A65"/>
<path d="M20.738 3.4H25.976V5.2H22.718V8.71H25.274V10.51H22.718V16H20.738V3.4ZM26.9255 3.4H28.9055V16H26.9255V3.4ZM30.3884 3.4H32.8724L34.7984 10.942H34.8344V3.4H36.5984V16H34.5644L32.1884 6.802H32.1524V16H30.3884V3.4ZM40.86 16.18C39.912 16.18 39.186 15.91 38.682 15.37C38.19 14.83 37.944 14.068 37.944 13.084V6.316C37.944 5.332 38.19 4.57 38.682 4.03C39.186 3.49 39.912 3.22 40.86 3.22C41.808 3.22 42.528 3.49 43.02 4.03C43.524 4.57 43.776 5.332 43.776 6.316V7.648H41.904V6.19C41.904 5.41 41.574 5.02 40.914 5.02C40.254 5.02 39.924 5.41 39.924 6.19V13.228C39.924 13.996 40.254 14.38 40.914 14.38C41.574 14.38 41.904 13.996 41.904 13.228V11.302H43.776V13.084C43.776 14.068 43.524 14.83 43.02 15.37C42.528 15.91 41.808 16.18 40.86 16.18ZM46.4907 3.4H49.1727L51.2247 16H49.2447L48.8847 13.498V13.534H46.6347L46.2747 16H44.4387L46.4907 3.4ZM48.6507 11.824L47.7687 5.596H47.7327L46.8687 11.824H48.6507ZM55.0681 3.4H58.0021C59.0221 3.4 59.7661 3.64 60.2341 4.12C60.7021 4.588 60.9361 5.314 60.9361 6.298V7.072C60.9361 8.38 60.5041 9.208 59.6401 9.556V9.592C60.1201 9.736 60.4561 10.03 60.6481 10.474C60.8521 10.918 60.9541 11.512 60.9541 12.256V14.47C60.9541 14.83 60.9661 15.124 60.9901 15.352C61.0141 15.568 61.0741 15.784 61.1701 16H59.1541C59.0821 15.796 59.0341 15.604 59.0101 15.424C58.9861 15.244 58.9741 14.92 58.9741 14.452V12.148C58.9741 11.572 58.8781 11.17 58.6861 10.942C58.5061 10.714 58.1881 10.6 57.7321 10.6H57.0481V16H55.0681V3.4ZM57.7681 8.8C58.1641 8.8 58.4581 8.698 58.6501 8.494C58.8541 8.29 58.9561 7.948 58.9561 7.468V6.496C58.9561 6.04 58.8721 5.71 58.7041 5.506C58.5481 5.302 58.2961 5.2 57.9481 5.2H57.0481V8.8H57.7681ZM63.8578 3.4H66.5398L68.5918 16H66.6118L66.2518 13.498V13.534H64.0018L63.6418 16H61.8058L63.8578 3.4ZM66.0178 11.824L65.1358 5.596H65.0998L64.2358 11.824H66.0178ZM69.5525 3.4H71.5325V16H69.5525V3.4ZM70.7225 0.483999H72.8825L70.9565 2.554H69.4625L70.7225 0.483999ZM72.6193 14.236L76.2913 5.2H72.7993V3.4H78.4153V5.164L74.7433 14.2H78.4153V16H72.6193V14.236Z" fill="#8E9EFF"/>
<path d="M79.5368 14.092H81.4448V16H79.5368V14.092ZM85.6139 16.18C84.6659 16.18 83.9399 15.91 83.4359 15.37C82.9439 14.83 82.6979 14.068 82.6979 13.084V6.316C82.6979 5.332 82.9439 4.57 83.4359 4.03C83.9399 3.49 84.6659 3.22 85.6139 3.22C86.5619 3.22 87.2819 3.49 87.7739 4.03C88.2779 4.57 88.5299 5.332 88.5299 6.316V7.648H86.6579V6.19C86.6579 5.41 86.3279 5.02 85.6679 5.02C85.0079 5.02 84.6779 5.41 84.6779 6.19V13.228C84.6779 13.996 85.0079 14.38 85.6679 14.38C86.3279 14.38 86.6579 13.996 86.6579 13.228V11.302H88.5299V13.084C88.5299 14.068 88.2779 14.83 87.7739 15.37C87.2819 15.91 86.5619 16.18 85.6139 16.18ZM92.6117 16.18C91.6397 16.18 90.8957 15.904 90.3797 15.352C89.8637 14.8 89.6057 14.02 89.6057 13.012V6.388C89.6057 5.38 89.8637 4.6 90.3797 4.048C90.8957 3.496 91.6397 3.22 92.6117 3.22C93.5837 3.22 94.3277 3.496 94.8437 4.048C95.3597 4.6 95.6177 5.38 95.6177 6.388V13.012C95.6177 14.02 95.3597 14.8 94.8437 15.352C94.3277 15.904 93.5837 16.18 92.6117 16.18ZM92.6117 14.38C93.2957 14.38 93.6377 13.966 93.6377 13.138V6.262C93.6377 5.434 93.2957 5.02 92.6117 5.02C91.9277 5.02 91.5857 5.434 91.5857 6.262V13.138C91.5857 13.966 91.9277 14.38 92.6117 14.38ZM96.9568 3.4H99.7828L101.043 12.418H101.079L102.339 3.4H105.165V16H103.293V6.46H103.257L101.817 16H100.161L98.7208 6.46H98.6848V16H96.9568V3.4Z" fill="white"/>
</svg>
