<svg width="40" height="40" viewBox="0 0 40 40" fill="none" xmlns="http://www.w3.org/2000/svg">
<path d="M19.9983 3.32129C10.81 3.32296 3.33333 10.7996 3.33167 19.9896C3.33167 29.1796 10.8083 36.6563 20 36.6563C29.19 36.6546 36.6667 29.178 36.6667 19.9896C36.6667 10.7996 29.19 3.32296 19.9983 3.32129ZM20 33.323C12.6467 33.323 6.665 27.3413 6.665 19.9896C6.66667 12.638 12.6483 6.65629 19.9983 6.65462C27.3517 6.65629 33.3333 12.638 33.3333 19.9896C33.3333 27.3396 27.3517 33.3213 20 33.323Z" fill="white"/>
<path d="M20.02 13.3154L13.345 19.9904L20.02 26.6638V21.6571H26.6766V18.3238H20.02V13.3154Z" fill="white"/>
</svg>
