<svg width="24" height="26" viewBox="0 0 24 26" fill="none" xmlns="http://www.w3.org/2000/svg">
<path fill-rule="evenodd" clip-rule="evenodd" d="M5.27446 11.1794C5 11.791 5 12.4869 5 13.8786V18.225C5 20.1577 5 21.1241 5.58579 21.7246C6.11733 22.2694 6.94285 22.3198 8.5 22.3245V17.2C8.5 16.1051 9.3723 15.175 10.5 15.175H13.5C14.6277 15.175 15.5 16.1051 15.5 17.2V22.3245C17.0572 22.3198 17.8827 22.2694 18.4142 21.7246C19 21.1241 19 20.1577 19 18.225V13.8786C19 12.4869 19 11.791 18.7255 11.1794C18.4511 10.5677 17.9356 10.1149 16.9047 9.20916L15.9047 8.33059C14.0414 6.69353 13.1098 5.875 12 5.875C10.8902 5.875 9.95857 6.69353 8.09525 8.33059L7.09525 9.20916C6.06437 10.1149 5.54892 10.5677 5.27446 11.1794ZM13.5 22.325V17.2C13.5 17.1912 13.4984 17.1859 13.497 17.1825C13.4958 17.1794 13.4942 17.1769 13.4926 17.175H10.5074C10.5058 17.1769 10.5042 17.1794 10.503 17.1825C10.5016 17.1859 10.5 17.1912 10.5 17.2V22.325H13.5Z" fill="#848484"/>
</svg>
