<svg width="24" height="26" viewBox="0 0 24 26" fill="none" xmlns="http://www.w3.org/2000/svg">
<path d="M21.75 14.0283H3.75V5.37986C3.74913 5.05417 3.81129 4.73153 3.9329 4.43063C4.0545 4.12973 4.23312 3.85654 4.45842 3.62687L4.47717 3.60766C4.83026 3.24627 5.2836 3.00543 5.77524 2.91804C6.26688 2.83065 6.77286 2.90097 7.22405 3.1194C6.79794 3.84558 6.62083 4.69689 6.72086 5.53807C6.82089 6.37925 7.19233 7.16203 7.77614 7.76203L8.28947 8.28819L7.34461 9.25672L8.4052 10.3438L9.35006 9.37535L14.5855 4.00913L15.5303 3.04065L14.4697 1.9535L13.5248 2.92198L13.0115 2.39582C12.3969 1.76762 11.5867 1.38037 10.7222 1.30157C9.85764 1.22276 8.99353 1.45738 8.28042 1.96455C7.52846 1.47779 6.63734 1.26766 5.75346 1.36866C4.86958 1.46966 4.04549 1.8758 3.41658 2.52035L3.39783 2.53957C3.03279 2.91169 2.74338 3.35433 2.54635 3.84187C2.34933 4.32941 2.2486 4.85216 2.25 5.37986V14.0283H0.75V15.5658H2.25V17.0408C2.24997 17.1648 2.26947 17.2879 2.30775 17.4055L3.70312 21.6961C3.77759 21.9258 3.92078 22.1256 4.11235 22.2671C4.30392 22.4087 4.53413 22.4847 4.77028 22.4846H5.37497L4.82812 24.4064H6.39061L6.9375 22.4846H16.6922L17.2547 24.4064H18.8203L18.2578 22.4846H19.2295C19.4657 22.4848 19.696 22.4087 19.8876 22.2672C20.0792 22.1256 20.2224 21.9258 20.2969 21.6961L21.6922 17.4055C21.7304 17.2879 21.75 17.1648 21.75 17.0408V15.5658H23.25V14.0283H21.75ZM8.83687 3.48297C9.25012 3.06032 9.81007 2.82295 10.3939 2.82295C10.9776 2.82295 11.5376 3.06032 11.9508 3.48297L12.4641 4.00913L9.3502 7.20084L8.83687 6.67478C8.42455 6.25118 8.19298 5.67725 8.19298 5.07887C8.19298 4.4805 8.42455 3.90656 8.83687 3.48297ZM20.25 16.9784L18.9594 20.9471H5.04056L3.75 16.9784V15.5658H20.25V16.9784Z" fill="#848484"/>
</svg>
