<svg width="24" height="24" viewBox="0 0 24 24" fill="none" xmlns="http://www.w3.org/2000/svg">
<path d="M2.40002 5.4001C2.40002 4.92271 2.58967 4.46487 2.92723 4.12731C3.2648 3.78974 3.72263 3.6001 4.20002 3.6001H17.4C17.8774 3.6001 18.3353 3.78974 18.6728 4.12731C19.0104 4.46487 19.2 4.92271 19.2 5.4001V9.6001H15.6C14.9635 9.6001 14.3531 9.85295 13.903 10.303C13.4529 10.7531 13.2 11.3636 13.2 12.0001V15.6001H4.20002C3.72263 15.6001 3.2648 15.4105 2.92723 15.0729C2.58967 14.7353 2.40002 14.2775 2.40002 13.8001V5.4001ZM4.80002 8.4001C5.43654 8.4001 6.04699 8.14724 6.49708 7.69715C6.94717 7.24707 7.20002 6.63662 7.20002 6.0001V4.8001H6.00002V6.0001C6.00002 6.31836 5.8736 6.62358 5.64855 6.84863C5.42351 7.07367 5.11828 7.2001 4.80002 7.2001H3.60002V8.4001H4.80002ZM8.70002 9.6001C8.70002 10.1571 8.92127 10.6912 9.3151 11.085C9.70893 11.4788 10.2431 11.7001 10.8 11.7001C11.357 11.7001 11.8911 11.4788 12.2849 11.085C12.6788 10.6912 12.9 10.1571 12.9 9.6001C12.9 9.04314 12.6788 8.509 12.2849 8.11517C11.8911 7.72135 11.357 7.5001 10.8 7.5001C10.2431 7.5001 9.70893 7.72135 9.3151 8.11517C8.92127 8.509 8.70002 9.04314 8.70002 9.6001V9.6001ZM3.60002 10.8001V12.0001H4.80002C5.11828 12.0001 5.42351 12.1265 5.64855 12.3516C5.8736 12.5766 6.00002 12.8818 6.00002 13.2001V14.4001H7.20002V13.2001C7.20002 12.5636 6.94717 11.9531 6.49708 11.503C6.04699 11.053 5.43654 10.8001 4.80002 10.8001H3.60002ZM18 8.4001V7.2001H16.8C16.4818 7.2001 16.1765 7.07367 15.9515 6.84863C15.7265 6.62358 15.6 6.31836 15.6 6.0001V4.8001H14.4V6.0001C14.4 6.63662 14.6529 7.24707 15.103 7.69715C15.5531 8.14724 16.1635 8.4001 16.8 8.4001H18ZM20.4 9.6001V6.1021C20.7511 6.22623 21.0551 6.4562 21.27 6.76031C21.4849 7.06442 21.6002 7.42771 21.6 7.8001V9.6001H20.4ZM13.2 16.8001V18.0001H6.60002C6.22763 18.0003 5.86435 17.885 5.56024 17.6701C5.25612 17.4551 5.02615 17.1512 4.90202 16.8001H13.2ZM16.2 10.8001C15.7226 10.8001 15.2648 10.9897 14.9272 11.3273C14.5897 11.6649 14.4 12.1227 14.4 12.6001V21.0001C14.4 21.4775 14.5897 21.9353 14.9272 22.2729C15.2648 22.6105 15.7226 22.8001 16.2 22.8001H21C21.4774 22.8001 21.9352 22.6105 22.2728 22.2729C22.6104 21.9353 22.8 21.4775 22.8 21.0001V12.6001C22.8 12.1227 22.6104 11.6649 22.2728 11.3273C21.9352 10.9897 21.4774 10.8001 21 10.8001H16.2ZM16.2 15.6001H17.4C17.5592 15.6001 17.7118 15.6633 17.8243 15.7758C17.9368 15.8884 18 16.041 18 16.2001C18 16.3592 17.9368 16.5118 17.8243 16.6244C17.7118 16.7369 17.5592 16.8001 17.4 16.8001H16.2C16.0409 16.8001 15.8883 16.7369 15.7758 16.6244C15.6632 16.5118 15.6 16.3592 15.6 16.2001C15.6 16.041 15.6632 15.8884 15.7758 15.7758C15.8883 15.6633 16.0409 15.6001 16.2 15.6001ZM19.8 15.6001H21C21.1592 15.6001 21.3118 15.6633 21.4243 15.7758C21.5368 15.8884 21.6 16.041 21.6 16.2001C21.6 16.3592 21.5368 16.5118 21.4243 16.6244C21.3118 16.7369 21.1592 16.8001 21 16.8001H19.8C19.6409 16.8001 19.4883 16.7369 19.3758 16.6244C19.2632 16.5118 19.2 16.3592 19.2 16.2001C19.2 16.041 19.2632 15.8884 19.3758 15.7758C19.4883 15.6633 19.6409 15.6001 19.8 15.6001ZM16.2 18.0001H17.4C17.5592 18.0001 17.7118 18.0633 17.8243 18.1758C17.9368 18.2884 18 18.441 18 18.6001C18 18.7592 17.9368 18.9118 17.8243 19.0244C17.7118 19.1369 17.5592 19.2001 17.4 19.2001H16.2C16.0409 19.2001 15.8883 19.1369 15.7758 19.0244C15.6632 18.9118 15.6 18.7592 15.6 18.6001C15.6 18.441 15.6632 18.2884 15.7758 18.1758C15.8883 18.0633 16.0409 18.0001 16.2 18.0001ZM19.8 18.0001H21C21.1592 18.0001 21.3118 18.0633 21.4243 18.1758C21.5368 18.2884 21.6 18.441 21.6 18.6001C21.6 18.7592 21.5368 18.9118 21.4243 19.0244C21.3118 19.1369 21.1592 19.2001 21 19.2001H19.8C19.6409 19.2001 19.4883 19.1369 19.3758 19.0244C19.2632 18.9118 19.2 18.7592 19.2 18.6001C19.2 18.441 19.2632 18.2884 19.3758 18.1758C19.4883 18.0633 19.6409 18.0001 19.8 18.0001ZM16.2 20.4001H17.4C17.5592 20.4001 17.7118 20.4633 17.8243 20.5758C17.9368 20.6884 18 20.841 18 21.0001C18 21.1592 17.9368 21.3118 17.8243 21.4244C17.7118 21.5369 17.5592 21.6001 17.4 21.6001H16.2C16.0409 21.6001 15.8883 21.5369 15.7758 21.4244C15.6632 21.3118 15.6 21.1592 15.6 21.0001C15.6 20.841 15.6632 20.6884 15.7758 20.5758C15.8883 20.4633 16.0409 20.4001 16.2 20.4001ZM19.8 20.4001H21C21.1592 20.4001 21.3118 20.4633 21.4243 20.5758C21.5368 20.6884 21.6 20.841 21.6 21.0001C21.6 21.1592 21.5368 21.3118 21.4243 21.4244C21.3118 21.5369 21.1592 21.6001 21 21.6001H19.8C19.6409 21.6001 19.4883 21.5369 19.3758 21.4244C19.2632 21.3118 19.2 21.1592 19.2 21.0001C19.2 20.841 19.2632 20.6884 19.3758 20.5758C19.4883 20.4633 19.6409 20.4001 19.8 20.4001ZM15.6 12.6001C15.6 12.441 15.6632 12.2884 15.7758 12.1758C15.8883 12.0633 16.0409 12.0001 16.2 12.0001H21C21.1592 12.0001 21.3118 12.0633 21.4243 12.1758C21.5368 12.2884 21.6 12.441 21.6 12.6001V13.8001C21.6 13.9592 21.5368 14.1118 21.4243 14.2244C21.3118 14.3369 21.1592 14.4001 21 14.4001H16.2C16.0409 14.4001 15.8883 14.3369 15.7758 14.2244C15.6632 14.1118 15.6 13.9592 15.6 13.8001V12.6001Z" fill="#F0EFEF"/>
</svg>
