<svg width="40" height="40" viewBox="0 0 40 40" fill="none" xmlns="http://www.w3.org/2000/svg">
<path d="M19.9983 3.32129C10.8083 3.32296 3.33167 10.7996 3.33167 19.9896C3.33167 29.1796 10.8083 36.6563 20 36.6563C29.1883 36.6563 36.665 29.1796 36.6667 19.9896C36.6667 10.7996 29.19 3.32296 19.9983 3.32129ZM20 33.323C12.6467 33.323 6.665 27.3413 6.665 19.9896C6.665 12.638 12.6467 6.65629 19.9983 6.65462C27.3517 6.65629 33.3333 12.638 33.3333 19.9896C33.3317 27.3413 27.35 33.323 20 33.323Z" fill="white"/>
<path d="M20 18.3234H13.3334V21.6567H20V26.6667L26.675 19.9917L20 13.3184V18.3234Z" fill="white"/>
</svg>
