<svg width="16" height="16" viewBox="0 0 16 16" fill="none" xmlns="http://www.w3.org/2000/svg">
<path fill-rule="evenodd" clip-rule="evenodd" d="M13.6 2.28564C12.1 0.795005 10.1 0 8 0C3.6 0 0 3.57752 0 7.95005C0 9.34131 0.400006 10.7326 1.10001 11.9251L0 15.9001L4.20001 14.807C5.40001 15.4032 6.7 15.8007 8 15.8007C12.4 15.8007 16 12.2232 16 7.85067C16 5.76378 15.1 3.77627 13.6 2.28564ZM8 14.5088C6.8 14.5088 5.60001 14.2107 4.60001 13.6145L4.39999 13.5151L1.89999 14.2107L2.60001 11.8257L2.39999 11.5276C1.69999 10.4344 1.39999 9.24193 1.39999 8.04942C1.39999 4.4719 4.4 1.49063 8 1.49063C9.8 1.49063 11.4 2.18626 12.7 3.37877C14 4.67065 14.6 6.26066 14.6 8.04942C14.6 11.5276 11.7 14.5088 8 14.5088ZM11.6 9.54006C11.4 9.44068 10.4 8.9438 10.2 8.9438C10 8.84443 9.89999 8.84443 9.79999 9.04318C9.69999 9.24193 9.30001 9.63943 9.20001 9.83818C9.10001 9.93756 8.99999 9.93756 8.79999 9.93756C8.59999 9.83819 8.00001 9.63943 7.20001 8.9438C6.60001 8.44693 6.20001 7.7513 6.10001 7.55255C6.00001 7.3538 6.10001 7.25442 6.20001 7.15504C6.30001 7.05567 6.4 6.95629 6.5 6.85692C6.6 6.75754 6.60001 6.65817 6.70001 6.55879C6.80001 6.45941 6.70001 6.36004 6.70001 6.26066C6.70001 6.16129 6.30001 5.16753 6.10001 4.77003C6.00001 4.4719 5.80001 4.4719 5.70001 4.4719C5.60001 4.4719 5.49999 4.4719 5.29999 4.4719C5.19999 4.4719 4.99999 4.4719 4.79999 4.67065C4.59999 4.8694 4.10001 5.36628 4.10001 6.36004C4.10001 7.35379 4.79999 8.24818 4.89999 8.44693C4.99999 8.5463 6.29999 10.6332 8.29999 11.4282C9.99999 12.1238 10.3 11.9251 10.7 11.9251C11.1 11.9251 11.9 11.4282 12 11.0307C12.2 10.5338 12.2 10.1363 12.1 10.1363C12 9.63943 11.8 9.63943 11.6 9.54006Z" fill="#383B9C"/>
</svg>
